<?xml version="1.0" encoding="UTF-8"?>
<!DOCTYPE svg PUBLIC "-//W3C//DTD SVG 1.1//EN" "http://www.w3.org/Graphics/SVG/1.1/DTD/svg11.dtd">
<svg xmlns="http://www.w3.org/2000/svg" version="1.1" width="60px" height="60px" style="shape-rendering:geometricPrecision; text-rendering:geometricPrecision; image-rendering:optimizeQuality; fill-rule:evenodd; clip-rule:evenodd" xmlns:xlink="http://www.w3.org/1999/xlink">
<g><path style="opacity:1" fill="#fafafa" d="M -0.5,-0.5 C 16.1667,-0.5 32.8333,-0.5 49.5,-0.5C 46.7458,0.94586 43.7458,1.94586 40.5,2.5C 39.5,2.5 38.5,2.5 37.5,2.5C 33.171,0.45912 28.8377,0.125786 24.5,1.5C 17.0994,2.29992 9.76603,2.29992 2.5,1.5C 6.23156,8.76942 6.23156,16.1028 2.5,23.5C 2.62358,24.1067 2.95691,24.44 3.5,24.5C 4.48552,28.4432 5.15218,32.4432 5.5,36.5C 4.30197,40.7668 3.30197,45.1002 2.5,49.5C 4.98935,49.2407 6.65601,50.2407 7.5,52.5C 7.5,53.5 7.5,54.5 7.5,55.5C 9.16667,55.5 10.8333,55.5 12.5,55.5C 20.5567,50.1228 29.2233,49.1228 38.5,52.5C 42.3698,52.1906 46.0365,51.5239 49.5,50.5C 50.4959,50.5858 51.3292,50.2524 52,49.5C 53.5904,43.3471 55.4238,37.3471 57.5,31.5C 57.3825,23.5421 56.0491,15.8754 53.5,8.5C 52.99,5.46059 52.3234,2.46059 51.5,-0.5C 54.1667,-0.5 56.8333,-0.5 59.5,-0.5C 59.5,19.5 59.5,39.5 59.5,59.5C 39.5,59.5 19.5,59.5 -0.5,59.5C -0.5,39.5 -0.5,19.5 -0.5,-0.5 Z"/></g>
<g><path style="opacity:1" fill="#b8dfa0" d="M 37.5,2.5 C 33.2546,4.08407 29.9212,6.75073 27.5,10.5C 26.8333,10.8333 26.1667,11.1667 25.5,11.5C 23.9092,9.56337 22.2425,7.56337 20.5,5.5C 22.188,4.4787 23.5213,3.14537 24.5,1.5C 28.8377,0.125786 33.171,0.45912 37.5,2.5 Z"/></g>
<g><path style="opacity:1" fill="#d5ebbe" d="M 49.5,-0.5 C 50.1667,-0.5 50.8333,-0.5 51.5,-0.5C 52.3234,2.46059 52.99,5.46059 53.5,8.5C 49.6039,5.45061 45.2706,3.45061 40.5,2.5C 43.7458,1.94586 46.7458,0.94586 49.5,-0.5 Z"/></g>
<g><path style="opacity:1" fill="#cfdcd4" d="M 37.5,2.5 C 38.5,2.5 39.5,2.5 40.5,2.5C 45.2706,3.45061 49.6039,5.45061 53.5,8.5C 56.0491,15.8754 57.3825,23.5421 57.5,31.5C 55.4238,37.3471 53.5904,43.3471 52,49.5C 51.3292,50.2524 50.4959,50.5858 49.5,50.5C 49.8333,49.8333 50.1667,49.1667 50.5,48.5C 50.6741,46.139 51.0074,43.8056 51.5,41.5C 52.6028,39.0568 53.2695,36.0568 53.5,32.5C 51.0885,32.1367 49.5885,33.1367 49,35.5C 47.9887,34.6634 46.8221,34.33 45.5,34.5C 41.8333,34.5 38.1667,34.5 34.5,34.5C 34.1667,33.8333 33.8333,33.1667 33.5,32.5C 36.1128,33.4349 38.7795,33.6015 41.5,33C 45.0813,28.7477 49.248,25.2477 54,22.5C 54.3322,18.3258 52.8322,14.9925 49.5,12.5C 47.4246,9.70637 44.5913,8.0397 41,7.5C 39.416,7.98841 38.2494,8.98841 37.5,10.5C 36.8076,9.97473 36.3076,9.30806 36,8.5C 34.6047,9.43031 33.1047,9.43031 31.5,8.5C 29.9271,8.75166 28.5938,9.41833 27.5,10.5C 29.9212,6.75073 33.2546,4.08407 37.5,2.5 Z"/></g>
<g><path style="opacity:1" fill="#cee8ae" d="M 24.5,1.5 C 23.5213,3.14537 22.188,4.4787 20.5,5.5C 22.2425,7.56337 23.9092,9.56337 25.5,11.5C 25.4431,12.609 25.1098,13.609 24.5,14.5C 21.2011,17.2625 17.7011,19.9292 14,22.5C 14.1126,25.9715 13.7792,29.3049 13,32.5C 10.5448,30.5718 10.3781,28.7385 12.5,27C 9.79351,25.0924 6.79351,24.259 3.5,24.5C 2.95691,24.44 2.62358,24.1067 2.5,23.5C 6.23156,16.1028 6.23156,8.76942 2.5,1.5C 9.76603,2.29992 17.0994,2.29992 24.5,1.5 Z"/></g>
<g><path style="opacity:1" fill="#dbeede" d="M 49.5,12.5 C 46.858,12.4877 45.5246,13.821 45.5,16.5C 43.6481,15.9111 41.8148,15.2444 40,14.5C 35.9913,15.9542 31.8247,16.6208 27.5,16.5C 27.5,14.5 27.5,12.5 27.5,10.5C 28.5938,9.41833 29.9271,8.75166 31.5,8.5C 33.1047,9.43031 34.6047,9.43031 36,8.5C 36.3076,9.30806 36.8076,9.97473 37.5,10.5C 38.2494,8.98841 39.416,7.98841 41,7.5C 44.5913,8.0397 47.4246,9.70637 49.5,12.5 Z"/></g>
<g><path style="opacity:1" fill="#c1d5e6" d="M 27.5,10.5 C 27.5,12.5 27.5,14.5 27.5,16.5C 31.8247,16.6208 35.9913,15.9542 40,14.5C 41.8148,15.2444 43.6481,15.9111 45.5,16.5C 47.0808,20.0943 46.4142,23.261 43.5,26C 40.1175,26.3091 37.4509,24.9758 35.5,22C 33.8659,21.5065 32.1992,21.3398 30.5,21.5C 29.9439,25.6656 30.9439,29.3323 33.5,32.5C 33.8333,33.1667 34.1667,33.8333 34.5,34.5C 33.8333,34.5 33.1667,34.5 32.5,34.5C 30.2509,32.0657 28.0843,29.399 26,26.5C 25.6466,27.6716 25.8132,28.8382 26.5,30C 26.3613,31.301 25.6946,32.1344 24.5,32.5C 22.5188,31.8946 22.1854,30.8946 23.5,29.5C 23.4433,27.1155 23.7766,24.7822 24.5,22.5C 24.1822,21.3527 23.5156,20.5194 22.5,20C 24.1554,18.5557 24.822,16.7224 24.5,14.5C 25.1098,13.609 25.4431,12.609 25.5,11.5C 26.1667,11.1667 26.8333,10.8333 27.5,10.5 Z"/></g>
<g><path style="opacity:1" fill="#c8e4c8" d="M 49.5,12.5 C 52.8322,14.9925 54.3322,18.3258 54,22.5C 49.248,25.2477 45.0813,28.7477 41.5,33C 38.7795,33.6015 36.1128,33.4349 33.5,32.5C 30.9439,29.3323 29.9439,25.6656 30.5,21.5C 32.1992,21.3398 33.8659,21.5065 35.5,22C 37.4509,24.9758 40.1175,26.3091 43.5,26C 46.4142,23.261 47.0808,20.0943 45.5,16.5C 45.5246,13.821 46.858,12.4877 49.5,12.5 Z"/></g>
<g><path style="opacity:1" fill="#c1e1a3" d="M 24.5,14.5 C 24.822,16.7224 24.1554,18.5557 22.5,20C 23.5156,20.5194 24.1822,21.3527 24.5,22.5C 23.7766,24.7822 23.4433,27.1155 23.5,29.5C 22.5,29.5 21.5,29.5 20.5,29.5C 20.6621,27.4727 20.4955,25.4727 20,23.5C 19.216,32.8019 14.3826,37.1352 5.5,36.5C 5.15218,32.4432 4.48552,28.4432 3.5,24.5C 6.79351,24.259 9.79351,25.0924 12.5,27C 10.3781,28.7385 10.5448,30.5718 13,32.5C 13.7792,29.3049 14.1126,25.9715 14,22.5C 17.7011,19.9292 21.2011,17.2625 24.5,14.5 Z"/></g>
<g><path style="opacity:1" fill="#444649" d="M 32.5,34.5 C 31.5416,34.0472 30.7083,33.3805 30,32.5C 28.9681,34.0267 27.8014,35.36 26.5,36.5C 25.3995,35.3951 24.7329,34.0618 24.5,32.5C 25.6946,32.1344 26.3613,31.301 26.5,30C 25.8132,28.8382 25.6466,27.6716 26,26.5C 28.0843,29.399 30.2509,32.0657 32.5,34.5 Z"/></g>
<g><path style="opacity:1" fill="#a9c394" d="M 51.5,41.5 C 50.8091,39.9778 49.6424,38.9778 48,38.5C 46.2341,39.2335 44.4008,39.5668 42.5,39.5C 41.8501,39.8039 41.1835,40.1373 40.5,40.5C 37.9527,40.229 35.9527,39.229 34.5,37.5C 38.0417,35.9926 41.7083,34.9926 45.5,34.5C 46.8221,34.33 47.9887,34.6634 49,35.5C 49.5885,33.1367 51.0885,32.1367 53.5,32.5C 53.2695,36.0568 52.6028,39.0568 51.5,41.5 Z"/></g>
<g><path style="opacity:1" fill="#8e9c89" d="M 32.5,34.5 C 33.1667,34.5 33.8333,34.5 34.5,34.5C 38.1667,34.5 41.8333,34.5 45.5,34.5C 41.7083,34.9926 38.0417,35.9926 34.5,37.5C 32.4012,36.7691 30.4012,36.7691 28.5,37.5C 29.5133,39.5266 30.5133,41.5266 31.5,43.5C 29.9256,43.0629 28.7589,42.0629 28,40.5C 24.4714,43.2987 20.6381,46.4654 16.5,50C 17.0944,50.4643 17.7611,50.631 18.5,50.5C 15.94,51.3847 13.94,53.0514 12.5,55.5C 10.8333,55.5 9.16667,55.5 7.5,55.5C 7.5,54.5 7.5,53.5 7.5,52.5C 8.65225,53.625 9.65225,53.625 10.5,52.5C 14.6061,49.5711 18.6061,46.4044 22.5,43C 24.4388,41.5679 25.7721,39.7346 26.5,37.5C 26.5,37.1667 26.5,36.8333 26.5,36.5C 27.8014,35.36 28.9681,34.0267 30,32.5C 30.7083,33.3805 31.5416,34.0472 32.5,34.5 Z"/></g>
<g><path style="opacity:1" fill="#c4dbac" d="M 23.5,29.5 C 22.1854,30.8946 22.5188,31.8946 24.5,32.5C 24.7329,34.0618 25.3995,35.3951 26.5,36.5C 26.5,36.8333 26.5,37.1667 26.5,37.5C 24.8712,36.3747 23.3712,35.0414 22,33.5C 17.3333,38.1667 12.6667,42.8333 8,47.5C 8.05789,49.4354 8.89122,51.1021 10.5,52.5C 9.65225,53.625 8.65225,53.625 7.5,52.5C 6.65601,50.2407 4.98935,49.2407 2.5,49.5C 3.30197,45.1002 4.30197,40.7668 5.5,36.5C 14.3826,37.1352 19.216,32.8019 20,23.5C 20.4955,25.4727 20.6621,27.4727 20.5,29.5C 21.5,29.5 22.5,29.5 23.5,29.5 Z"/></g>
<g><path style="opacity:1" fill="#cbe2ad" d="M 34.5,37.5 C 35.9527,39.229 37.9527,40.229 40.5,40.5C 41.1835,40.1373 41.8501,39.8039 42.5,39.5C 42.4211,41.6663 41.7545,43.6663 40.5,45.5C 40.9024,47.3002 41.5691,48.9668 42.5,50.5C 39.7579,52.0304 37.7579,51.3638 36.5,48.5C 35.8333,45.8333 34.1667,44.1667 31.5,43.5C 30.5133,41.5266 29.5133,39.5266 28.5,37.5C 30.4012,36.7691 32.4012,36.7691 34.5,37.5 Z"/></g>
<g><path style="opacity:1" fill="#9ed185" d="M 51.5,41.5 C 51.0074,43.8056 50.6741,46.139 50.5,48.5C 47.8877,49.3705 45.221,50.0372 42.5,50.5C 41.5691,48.9668 40.9024,47.3002 40.5,45.5C 41.7545,43.6663 42.4211,41.6663 42.5,39.5C 44.4008,39.5668 46.2341,39.2335 48,38.5C 49.6424,38.9778 50.8091,39.9778 51.5,41.5 Z"/></g>
<g><path style="opacity:1" fill="#c3dba7" d="M 31.5,43.5 C 32.8333,45.5 34.5,47.1667 36.5,48.5C 36.38,49.5862 35.7133,50.2528 34.5,50.5C 29.1675,47.9663 23.8342,47.9663 18.5,50.5C 17.7611,50.631 17.0944,50.4643 16.5,50C 20.6381,46.4654 24.4714,43.2987 28,40.5C 28.7589,42.0629 29.9256,43.0629 31.5,43.5 Z"/></g>
<g><path style="opacity:1" fill="#b9d0d4" d="M 31.5,43.5 C 34.1667,44.1667 35.8333,45.8333 36.5,48.5C 34.5,47.1667 32.8333,45.5 31.5,43.5 Z"/></g>
<g><path style="opacity:1" fill="#333436" d="M 26.5,37.5 C 25.7721,39.7346 24.4388,41.5679 22.5,43C 18.6061,46.4044 14.6061,49.5711 10.5,52.5C 8.89122,51.1021 8.05789,49.4354 8,47.5C 12.6667,42.8333 17.3333,38.1667 22,33.5C 23.3712,35.0414 24.8712,36.3747 26.5,37.5 Z"/></g>
<g><path style="opacity:1" fill="#bdbfbd" d="M 36.5,48.5 C 37.7579,51.3638 39.7579,52.0304 42.5,50.5C 45.221,50.0372 47.8877,49.3705 50.5,48.5C 50.1667,49.1667 49.8333,49.8333 49.5,50.5C 46.0365,51.5239 42.3698,52.1906 38.5,52.5C 29.2233,49.1228 20.5567,50.1228 12.5,55.5C 13.94,53.0514 15.94,51.3847 18.5,50.5C 23.8342,47.9663 29.1675,47.9663 34.5,50.5C 35.7133,50.2528 36.38,49.5862 36.5,48.5 Z"/></g>
</svg>
