<?xml version="1.0" encoding="UTF-8"?>
<!DOCTYPE svg PUBLIC "-//W3C//DTD SVG 1.1//EN" "http://www.w3.org/Graphics/SVG/1.1/DTD/svg11.dtd">
<svg xmlns="http://www.w3.org/2000/svg" version="1.1" width="50px" height="50px" style="shape-rendering:geometricPrecision; text-rendering:geometricPrecision; image-rendering:optimizeQuality; fill-rule:evenodd; clip-rule:evenodd" xmlns:xlink="http://www.w3.org/1999/xlink">
<g><path style="opacity:1" fill="#0c1e2b" d="M -0.5,-0.5 C 4.83333,-0.5 10.1667,-0.5 15.5,-0.5C 15.5,4.5 15.5,9.5 15.5,14.5C 15.5,16.5 16.5,17.5 18.5,17.5C 21.0417,21.4407 24.375,23.1073 28.5,22.5C 30.1745,19.4928 30.8412,16.1595 30.5,12.5C 29.0413,12.5674 27.7079,12.2341 26.5,11.5C 24.7437,7.7272 23.7437,3.7272 23.5,-0.5C 26.8333,-0.5 30.1667,-0.5 33.5,-0.5C 33.1984,2.0593 33.5318,4.39263 34.5,6.5C 35.6813,9.54159 37.0146,12.5416 38.5,15.5C 41.7683,16.487 45.1016,16.8204 48.5,16.5C 48.8333,16.5 49.1667,16.5 49.5,16.5C 49.5,27.5 49.5,38.5 49.5,49.5C 32.8333,49.5 16.1667,49.5 -0.5,49.5C -0.5,32.8333 -0.5,16.1667 -0.5,-0.5 Z"/></g>
<g><path style="opacity:1" fill="#1a2d27" d="M 33.5,-0.5 C 34.1667,-0.5 34.8333,-0.5 35.5,-0.5C 35.5,0.166667 35.5,0.833333 35.5,1.5C 34.5489,2.91866 34.2155,4.58533 34.5,6.5C 33.5318,4.39263 33.1984,2.0593 33.5,-0.5 Z"/></g>
<g><path style="opacity:1" fill="#716546" d="M 39.5,-0.5 C 41.1667,-0.5 42.8333,-0.5 44.5,-0.5C 45.1667,1.5 45.8333,3.5 46.5,5.5C 47.5,5.5 48.5,5.5 49.5,5.5C 49.5,8.16667 49.5,10.8333 49.5,13.5C 47.9906,12.6961 46.6573,11.5295 45.5,10C 43.8659,9.50649 42.1992,9.33982 40.5,9.5C 39.375,8.34775 39.375,7.34775 40.5,6.5C 43.676,8.27287 45.3427,7.27287 45.5,3.5C 44.448,3.64945 43.448,3.48278 42.5,3C 43.7112,2.10723 43.7112,1.2739 42.5,0.5C 41.7348,1.61191 40.7348,2.27858 39.5,2.5C 40.8333,1.5 40.8333,0.5 39.5,-0.5 Z"/></g>
<g><path style="opacity:1" fill="#496130" d="M 44.5,-0.5 C 46.1667,-0.5 47.8333,-0.5 49.5,-0.5C 49.5,1.5 49.5,3.5 49.5,5.5C 48.5,5.5 47.5,5.5 46.5,5.5C 45.8333,3.5 45.1667,1.5 44.5,-0.5 Z"/></g>
<g><path style="opacity:1" fill="#273b22" d="M 35.5,1.5 C 35.8212,3.04814 36.8212,3.71481 38.5,3.5C 38.5,5.5 38.5,7.5 38.5,9.5C 38.1667,9.5 37.8333,9.5 37.5,9.5C 36.8333,8.16667 35.8333,7.16667 34.5,6.5C 34.2155,4.58533 34.5489,2.91866 35.5,1.5 Z"/></g>
<g><path style="opacity:1" fill="#4b512e" d="M 35.5,-0.5 C 36.8333,-0.5 38.1667,-0.5 39.5,-0.5C 40.8333,0.5 40.8333,1.5 39.5,2.5C 40.2341,3.70792 40.5674,5.04125 40.5,6.5C 39.375,7.34775 39.375,8.34775 40.5,9.5C 39.8333,9.5 39.1667,9.5 38.5,9.5C 38.5,7.5 38.5,5.5 38.5,3.5C 36.8212,3.71481 35.8212,3.04814 35.5,1.5C 35.5,0.833333 35.5,0.166667 35.5,-0.5 Z"/></g>
<g><path style="opacity:1" fill="#615638" d="M 22.5,4.5 C 23.2679,6.71458 23.9346,9.04791 24.5,11.5C 23.8333,12.8333 22.8333,13.8333 21.5,14.5C 21.6602,12.8008 21.4935,11.1341 21,9.5C 20.2904,10.9733 19.1238,11.6399 17.5,11.5C 17.3945,8.31636 17.7278,4.98303 18.5,1.5C 19.5695,2.90952 20.9028,3.90952 22.5,4.5 Z"/></g>
<g><path style="opacity:1" fill="#896f51" d="M 40.5,6.5 C 40.5674,5.04125 40.2341,3.70792 39.5,2.5C 40.7348,2.27858 41.7348,1.61191 42.5,0.5C 43.7112,1.2739 43.7112,2.10723 42.5,3C 43.448,3.48278 44.448,3.64945 45.5,3.5C 45.3427,7.27287 43.676,8.27287 40.5,6.5 Z"/></g>
<g><path style="opacity:1" fill="#152c24" d="M 22.5,-0.5 C 22.8333,-0.5 23.1667,-0.5 23.5,-0.5C 23.7437,3.7272 24.7437,7.7272 26.5,11.5C 26.1667,11.5 25.8333,11.5 25.5,11.5C 25.1667,11.5 24.8333,11.5 24.5,11.5C 23.9346,9.04791 23.2679,6.71458 22.5,4.5C 22.5,2.83333 22.5,1.16667 22.5,-0.5 Z"/></g>
<g><path style="opacity:1" fill="#464e31" d="M 15.5,-0.5 C 17.8333,-0.5 20.1667,-0.5 22.5,-0.5C 22.5,1.16667 22.5,2.83333 22.5,4.5C 20.9028,3.90952 19.5695,2.90952 18.5,1.5C 17.7278,4.98303 17.3945,8.31636 17.5,11.5C 18.3007,13.0418 18.634,14.7085 18.5,16.5C 17.5,15.8333 16.5,15.1667 15.5,14.5C 15.5,9.5 15.5,4.5 15.5,-0.5 Z"/></g>
<g><path style="opacity:1" fill="#625f43" d="M 37.5,9.5 C 37.8333,9.5 38.1667,9.5 38.5,9.5C 39.1667,9.5 39.8333,9.5 40.5,9.5C 42.1992,9.33982 43.8659,9.50649 45.5,10C 46.6573,11.5295 47.9906,12.6961 49.5,13.5C 49.5,14.5 49.5,15.5 49.5,16.5C 49.1667,16.5 48.8333,16.5 48.5,16.5C 48.3893,15.8826 48.056,15.3826 47.5,15C 45.1667,14.6667 42.8333,14.3333 40.5,14C 38.8588,12.871 37.8588,11.371 37.5,9.5 Z"/></g>
<g><path style="opacity:1" fill="#887a5e" d="M 40.5,11.5 C 42.4199,10.0595 44.0866,10.3929 45.5,12.5C 43.533,13.6838 41.8664,13.3505 40.5,11.5 Z"/></g>
<g><path style="opacity:1" fill="#7e6444" d="M 21.5,14.5 C 20.5,15.1667 19.5,15.8333 18.5,16.5C 18.634,14.7085 18.3007,13.0418 17.5,11.5C 19.1238,11.6399 20.2904,10.9733 21,9.5C 21.4935,11.1341 21.6602,12.8008 21.5,14.5 Z"/></g>
<g><path style="opacity:1" fill="#233a2a" d="M 25.5,11.5 C 25.8333,11.5 26.1667,11.5 26.5,11.5C 27.7079,12.2341 29.0413,12.5674 30.5,12.5C 30.8412,16.1595 30.1745,19.4928 28.5,22.5C 28.75,19.786 28.9167,17.1194 29,14.5C 26.3422,15.694 25.1756,14.694 25.5,11.5 Z"/></g>
<g><path style="opacity:1" fill="#19312b" d="M 15.5,14.5 C 16.5,15.1667 17.5,15.8333 18.5,16.5C 18.5,16.8333 18.5,17.1667 18.5,17.5C 16.5,17.5 15.5,16.5 15.5,14.5 Z"/></g>
<g><path style="opacity:1" fill="#1e2f2c" d="M 34.5,6.5 C 35.8333,7.16667 36.8333,8.16667 37.5,9.5C 37.8588,11.371 38.8588,12.871 40.5,14C 42.8333,14.3333 45.1667,14.6667 47.5,15C 48.056,15.3826 48.3893,15.8826 48.5,16.5C 45.1016,16.8204 41.7683,16.487 38.5,15.5C 37.0146,12.5416 35.6813,9.54159 34.5,6.5 Z"/></g>
<g><path style="opacity:1" fill="#1b3b2d" d="M 18.5,17.5 C 21.8532,19.1766 25.1866,20.8433 28.5,22.5C 24.375,23.1073 21.0417,21.4407 18.5,17.5 Z"/></g>
<g><path style="opacity:1" fill="#475031" d="M 24.5,11.5 C 24.8333,11.5 25.1667,11.5 25.5,11.5C 25.1756,14.694 26.3422,15.694 29,14.5C 28.9167,17.1194 28.75,19.786 28.5,22.5C 25.1866,20.8433 21.8532,19.1766 18.5,17.5C 18.5,17.1667 18.5,16.8333 18.5,16.5C 19.5,15.8333 20.5,15.1667 21.5,14.5C 22.8333,13.8333 23.8333,12.8333 24.5,11.5 Z"/></g>
<g><path style="opacity:1" fill="#4d5133" d="M 16.5,27.5 C 17.404,28.209 17.7373,29.209 17.5,30.5C 16.1667,30.5 14.8333,30.5 13.5,30.5C 13.2852,32.1788 13.9519,33.1788 15.5,33.5C 14.3995,34.6049 13.7329,35.9382 13.5,37.5C 13.5,37.8333 13.5,38.1667 13.5,38.5C 13.1667,38.5 12.8333,38.5 12.5,38.5C 12.762,37.0222 12.4287,35.6888 11.5,34.5C 10.8076,35.0253 10.3076,35.6919 10,36.5C 9.60123,36.2716 9.43456,35.9382 9.5,35.5C 9.5,33.8333 9.5,32.1667 9.5,30.5C 11.4605,28.8872 13.7939,27.8872 16.5,27.5 Z"/></g>
<g><path style="opacity:1" fill="#766042" d="M 17.5,30.5 C 17.573,32.0269 16.9063,33.0269 15.5,33.5C 13.9519,33.1788 13.2852,32.1788 13.5,30.5C 14.8333,30.5 16.1667,30.5 17.5,30.5 Z"/></g>
<g><path style="opacity:1" fill="#183028" d="M 16.5,27.5 C 19.6053,31.0096 18.6053,34.3429 13.5,37.5C 13.7329,35.9382 14.3995,34.6049 15.5,33.5C 16.9063,33.0269 17.573,32.0269 17.5,30.5C 17.7373,29.209 17.404,28.209 16.5,27.5 Z"/></g>
<g><path style="opacity:1" fill="#38482b" d="M 9.5,30.5 C 9.5,32.1667 9.5,33.8333 9.5,35.5C 8.59872,36.2905 7.93205,37.2905 7.5,38.5C 6.02561,37.5637 5.02561,36.2303 4.5,34.5C 6.14226,33.197 7.80893,31.8637 9.5,30.5 Z"/></g>
<g><path style="opacity:1" fill="#716140" d="M 12.5,38.5 C 11.6618,38.8417 11.3284,39.5084 11.5,40.5C 10.1667,40.1667 8.83333,39.8333 7.5,39.5C 7.5,39.1667 7.5,38.8333 7.5,38.5C 7.93205,37.2905 8.59872,36.2905 9.5,35.5C 9.43456,35.9382 9.60123,36.2716 10,36.5C 10.3076,35.6919 10.8076,35.0253 11.5,34.5C 12.4287,35.6888 12.762,37.0222 12.5,38.5 Z"/></g>
<g><path style="opacity:1" fill="#19382b" d="M 4.5,34.5 C 5.02561,36.2303 6.02561,37.5637 7.5,38.5C 7.5,38.8333 7.5,39.1667 7.5,39.5C 8.41364,44.0079 9.74698,44.3412 11.5,40.5C 11.3284,39.5084 11.6618,38.8417 12.5,38.5C 12.8333,38.5 13.1667,38.5 13.5,38.5C 12.6295,41.1123 11.9628,43.779 11.5,46.5C 10.1667,46.5 8.83333,46.5 7.5,46.5C 7.14945,42.6311 5.81611,39.1311 3.5,36C 3.56993,35.2352 3.90326,34.7352 4.5,34.5 Z"/></g>
<g><path style="opacity:1" fill="#535335" d="M 7.5,39.5 C 8.83333,39.8333 10.1667,40.1667 11.5,40.5C 9.74698,44.3412 8.41364,44.0079 7.5,39.5 Z"/></g>
</svg>
